# Blender 5.0.1
# www.blender.org
mtllib gate.mtl
o obj1
v -1.350000 0.070000 -1.350000
v -0.750000 0.056653 -0.750000
v 1.350000 0.070000 -1.350000
v 1.350000 0.070000 1.350000
v 1.350000 -0.070000 -1.350000
v 1.350000 0.070000 -1.350000
v 1.350000 -0.070000 -1.350000
v 0.750000 -0.056653 -0.750000
v -1.350000 -0.070000 -1.350000
v -1.350000 -0.070000 1.350000
v -1.350000 0.070000 -1.350000
v -1.350000 -0.070000 -1.350000
v 1.350000 -0.070000 -1.350000
v -1.350000 0.070000 -1.350000
v 1.350000 0.070000 -1.350000
v 1.350000 0.070000 1.350000
v -1.350000 -0.070000 1.350000
v 1.350000 -0.070000 1.350000
v 0.750000 -0.056653 -0.750000
v 0.750000 0.056653 0.750000
v 0.750000 0.056653 -0.750000
v -0.750000 -0.056653 0.750000
v 1.350000 -0.070000 1.350000
v -1.350000 -0.070000 1.350000
v 0.750000 0.056653 0.750000
v -1.350000 0.070000 1.350000
v 1.350000 0.070000 1.350000
v -0.750000 -0.056653 -0.750000
v 0.750000 0.056653 -0.750000
v -0.750000 0.056653 -0.750000
v -0.750000 0.056653 -0.750000
v -0.750000 -0.056653 0.750000
v -0.750000 -0.056653 -0.750000
v -0.750000 0.056653 0.750000
v 0.750000 -0.056653 0.750000
v -0.750000 -0.056653 0.750000
v -0.750000 0.056653 0.750000
v 0.750000 0.056653 -0.750000
v 1.350000 -0.070000 1.350000
v 0.750000 -0.056653 0.750000
v -0.750000 -0.056653 -0.750000
v -1.350000 0.070000 1.350000
v -1.350000 -0.070000 -1.350000
v -1.350000 0.070000 1.350000
v 0.750000 -0.056653 0.750000
v 0.750000 -0.056653 -0.750000
v -0.750000 0.056653 0.750000
v 0.750000 0.056653 0.750000
vn -0.0000 0.9997 0.0226
vn -0.0000 0.9998 0.0222
vn 1.0000 -0.0000 -0.0000
vn -0.0000 -0.9997 0.0226
vn -0.0000 -0.9998 0.0222
vn -1.0000 -0.0000 -0.0000
vn -0.0000 0.0000 -1.0000
vn -0.0000 0.0000 1.0000
vn -0.0000 -0.9998 -0.0222
vn -0.0000 -0.9997 -0.0226
vn -0.0000 0.9998 -0.0222
vn -0.0000 0.9997 -0.0226
vn 0.0222 0.9998 -0.0000
vn -0.0222 -0.9998 -0.0000
vn 0.0222 -0.9998 -0.0000
vn -0.0222 0.9998 -0.0000
vt -0.006103 0.002901
vt 0.218832 0.223834
vt 1.006103 0.002901
vt 1.006103 0.997099
vt 0.781168 0.223834
vt -0.006103 0.997099
vt 0.781168 0.776166
vt 0.218832 0.776166
s 1
usemtl mat0
f 1/1/1 2/2/2 3/3/2
f 4/4/3 5/3/3 6/3/3
f 7/3/4 8/5/5 9/1/5
f 10/6/6 11/1/6 12/1/6
f 13/3/7 14/1/7 15/3/7
f 16/4/8 17/6/8 18/4/8
f 19/5/6 20/7/6 21/5/6
f 22/8/9 23/4/9 24/6/10
f 25/7/11 26/6/11 27/4/12
f 28/2/8 29/5/8 30/2/8
f 31/2/3 32/8/3 33/2/3
f 34/8/7 35/7/7 36/8/7
f 1/1/13 26/6/13 37/8/13
f 2/2/2 38/5/2 3/3/2
f 1/1/13 37/8/13 2/2/13
f 4/4/3 39/4/3 5/3/3
f 7/3/14 23/4/14 40/7/14
f 8/5/5 41/2/5 9/1/5
f 7/3/14 40/7/14 8/5/14
f 10/6/6 42/6/6 11/1/6
f 13/3/7 43/1/7 14/1/7
f 16/4/8 44/6/8 17/6/8
f 19/5/6 45/7/6 20/7/6
f 24/6/15 9/1/15 41/2/15
f 22/8/9 40/7/9 23/4/9
f 24/6/15 41/2/15 22/8/15
f 27/4/16 3/3/16 38/5/16
f 25/7/11 37/8/11 26/6/11
f 27/4/16 38/5/16 25/7/16
f 28/2/8 46/5/8 29/5/8
f 31/2/3 47/8/3 32/8/3
f 34/8/7 48/7/7 35/7/7
